<svg width="344" height="45" viewBox="0 0 344 45" xmlns="http://www.w3.org/2000/svg"><title>Group 5</title><g fill="#E3A300" fill-rule="evenodd"><path d="M15.694 34.894l-2.746-1.75 2.746-1.748c2.875-1.832 4.689-5.192 4.689-8.911 0-3.719-1.814-7.08-4.69-8.91l-2.745-1.75 2.746-1.749a12.65 12.65 0 0 1 6.824-2.005c7.425 0 13.405 6.475 13.405 14.414 0 7.94-5.98 14.414-13.405 14.414-2.433 0-4.776-.7-6.824-2.005zm6.824-2.106c5.182 0 9.423-4.591 9.423-10.303 0-5.712-4.24-10.304-9.423-10.304-.67 0-1.33.077-1.972.226 2.406 2.645 3.819 6.233 3.819 10.078 0 3.845-1.413 7.433-3.819 10.078.642.149 1.302.225 1.972.225z" fill-rule="nonzero"/><path d="M21.793 45C9.763 45 .01 34.933.01 22.515S9.763.03 21.793.03s21.781 10.067 21.781 22.485S33.822 45 21.793 45zm0-4.652c9.54 0 17.275-7.984 17.275-17.833 0-9.849-7.735-17.833-17.275-17.833-9.541 0-17.275 7.984-17.275 17.833 0 9.849 7.734 17.833 17.275 17.833z" fill-rule="nonzero"/><path d="M73.439 9.58l-5.53 8.418-3.128-8.419h-9.497l-3.623 25.75h8.81l1.831-13.141 3.738 8.228h.229l6.064-8.228-1.83 13.142h8.81l3.623-25.75h-9.497zm23.304 5.065c5.682 0 10.183 3.39 10.183 9.257 0 7.466-6.37 11.923-13.158 11.923-5.76 0-10.26-3.352-10.26-9.219 0-7.542 6.37-11.96 13.235-11.96zM94.72 28.778c1.83 0 3.242-1.981 3.242-4.114 0-1.638-.8-2.972-2.25-2.972-1.831 0-3.242 1.981-3.242 4.114 0 1.638.8 2.972 2.25 2.972zm26.813-14.133c5.682 0 10.183 3.39 10.183 9.257 0 7.466-6.37 11.923-13.158 11.923-5.76 0-10.26-3.352-10.26-9.219 0-7.542 6.37-11.96 13.235-11.96zm-2.022 14.133c1.83 0 3.242-1.981 3.242-4.114 0-1.638-.8-2.972-2.25-2.972-1.83 0-3.242 1.981-3.242 4.114 0 1.638.8 2.972 2.25 2.972zm37.11-7.162c.573-4-1.868-6.97-5.95-6.97-2.517 0-4.69.952-6.369 2.475l.267-1.98h-8.963l-2.822 20.189h9.268l1.64-11.542c.153-1.029.992-1.867 1.907-1.867.954 0 1.64.838 1.488 1.867l-.916 6.361c-.458 3.085 1.22 5.676 5.492 5.676 1.907 0 4.081-.305 5.34-.724l.8-5.562c-1.372.343-2.326.115-2.135-1.333l.954-6.59zm14.646 8c-1.144 0-2.25-.153-1.945-2.248l2.823-20.189h-9.192l-2.86 20.19c-.954 6.742 2.67 8.456 6.445 8.456 1.907 0 3.585-.305 4.844-.724l.8-5.562a7.415 7.415 0 0 1-.915.077zm2.86.533c-.419 3.085 1.221 5.676 5.493 5.676 1.907 0 4.081-.305 5.34-.724l.8-5.562c-1.334.305-2.326.115-2.135-1.142l1.869-13.256h-9.268l-2.098 15.008zm12.625-22.97h-9.459l-.839 6.019h9.46l.838-6.019zm16.324 7.962h8.849l-2.403 16.989c-1.106 7.77-4.768 11.085-12.968 11.085-6.674 0-8.886-2.21-8.886-4.876 0-2.476 1.868-4.724 5.187-5.752-3.204-.762-5.073-3.847-5.073-7.657 0-5.675 4.195-10.285 9.459-10.285 2.479 0 4.348 1.029 5.53 2.629l.305-2.133zm-3.394 6.247c-1.64 0-2.937 1.714-2.937 3.695 0 1.485.763 2.666 2.098 2.666 1.602 0 2.975-1.714 2.975-3.695 0-1.447-.763-2.666-2.136-2.666zm.381 14.018l.382-2.667s-4.005.42-4.005 3.352c0 1.029.496 1.6 1.45 1.6 1.143 0 1.944-.762 2.173-2.285zm36.424-13.79c.572-4-1.83-6.97-6.102-6.97-2.289 0-4.387.952-5.874 2.361l1.373-9.828h-9.268l-3.967 28.15h9.268l1.64-11.541c.153-1.029.992-1.867 1.907-1.867.954 0 1.64.838 1.488 1.867l-.915 6.361c-.458 3.085 1.22 5.676 5.492 5.676 1.907 0 4.08-.305 5.34-.724l.8-5.562c-1.373.343-2.326.115-2.136-1.333l.954-6.59zm3.7.19h1.983l-1.106 7.733c-.687 4.724 2.021 6.286 6.102 6.286 2.403 0 4.806-.534 6.331-1.181l.763-5.485c-.42.076-.877.19-1.64.19-1.144 0-2.212-.571-1.983-2.171l.763-5.371h3.356l.954-6.666h-3.357l.649-4.686h-9.23l-.649 4.686h-1.983l-.953 6.666zm38.025-12.722c8.506 0 14.074 4.228 14.074 11.694 0 12.952-11.595 15.047-18.994 15.047-3.204 0-6.217-.305-8.2-.534l3.585-25.56c2.746-.419 5.607-.647 9.535-.647zm-2.746 19.427c.305.038.763.038 1.106.038 4.348 0 6.179-3.58 6.179-7.58 0-3.048-1.488-4.838-4.386-4.838-.343 0-.84 0-1.144.038l-1.755 12.342zm30.474-19.427c5.988 0 13.006 1.943 13.006 8.8 0 8.494-8.543 11.389-15.332 10.817l-.916 6.629h-9.268c3.585-25.599 3.624-25.637 3.624-25.637 1.678-.266 4.729-.61 8.886-.61zm-.648 7.276l-.763 5.447c1.564.114 5.11-.115 5.11-3.086 0-2.285-3.012-2.552-4.347-2.361zm29.864 11.884c-3.586 0-5.76-1.714-5.76-5.142 0-3.771 2.67-6.552 7.17-6.552 1.755 0 3.433.419 4.54.952l2.822-6.818c-2.174-.8-5.225-1.6-8.506-1.6-9.115 0-15.675 6.095-15.675 15.008 0 7.619 4.767 11.733 12.167 11.733 3.242 0 6.522-.8 8.924-1.6L340 27.292c-1.258.533-3.089.952-4.843.952z"/></g></svg>
